<?xml version="1.0" encoding="UTF-8"?>
<svg xmlns="http://www.w3.org/2000/svg" xmlns:xlink="http://www.w3.org/1999/xlink" width="25px" height="25px" viewBox="0 0 25 25" version="1.1">
<g id="surface1">
<path style=" stroke:none;fill-rule:nonzero;fill:rgb(100%,100%,100%);fill-opacity:1;" d="M 0.332031 0.566406 C 0.351562 0.585938 0.839844 3.027344 1.445312 5.976562 C 2.050781 8.925781 2.539062 11.347656 2.558594 11.367188 C 2.558594 11.367188 5.917969 11.5625 10 11.777344 C 14.0625 12.011719 17.421875 12.1875 17.421875 12.1875 C 17.441406 12.207031 17.421875 12.34375 17.402344 12.34375 C 17.363281 12.34375 2.597656 13.535156 2.558594 13.554688 C 2.519531 13.554688 2.207031 14.902344 1.269531 19.003906 C 0.566406 21.992188 0 24.453125 0.0195312 24.453125 C 0.0195312 24.472656 24.980469 12.1875 24.980469 12.167969 C 24.980469 12.148438 0.507812 0.585938 0.371094 0.527344 C 0.332031 0.527344 0.332031 0.527344 0.332031 0.566406 Z M 0.332031 0.566406 "/>
</g>
</svg>
