<?xml version="1.0" encoding="UTF-8"?>
<svg xmlns="http://www.w3.org/2000/svg" xmlns:xlink="http://www.w3.org/1999/xlink" width="25px" height="29px" viewBox="0 0 25 28" version="1.1">
<g id="surface1">
<path style=" stroke:none;fill-rule:nonzero;fill:rgb(100%,100%,100%);fill-opacity:1;" d="M 21.253906 5.308594 C 18.917969 3.011719 15.804688 1.75 12.496094 1.75 C 5.664062 1.75 0.105469 7.195312 0.105469 13.890625 C 0.105469 16.027344 0.675781 18.117188 1.757812 19.960938 L 0 26.25 L 6.566406 24.558594 C 8.375 25.527344 10.414062 26.035156 12.488281 26.035156 L 12.496094 26.035156 C 19.320312 26.035156 25 20.589844 25 13.894531 C 25 10.652344 23.59375 7.605469 21.253906 5.308594 Z M 12.496094 23.992188 C 10.640625 23.992188 8.828125 23.503906 7.25 22.585938 L 6.875 22.367188 L 2.980469 23.367188 L 4.019531 19.644531 L 3.773438 19.261719 C 2.738281 17.652344 2.199219 15.800781 2.199219 13.890625 C 2.199219 8.328125 6.820312 3.800781 12.5 3.800781 C 15.25 3.800781 17.835938 4.851562 19.777344 6.757812 C 21.71875 8.667969 22.914062 11.199219 22.90625 13.894531 C 22.90625 19.464844 18.167969 23.992188 12.496094 23.992188 Z M 18.140625 16.433594 C 17.835938 16.28125 16.3125 15.546875 16.027344 15.449219 C 15.742188 15.34375 15.535156 15.296875 15.328125 15.601562 C 15.121094 15.910156 14.53125 16.585938 14.347656 16.792969 C 14.167969 16.996094 13.984375 17.023438 13.675781 16.871094 C 11.859375 15.980469 10.664062 15.28125 9.464844 13.261719 C 9.144531 12.726562 9.78125 12.765625 10.375 11.605469 C 10.472656 11.402344 10.425781 11.226562 10.347656 11.074219 C 10.269531 10.921875 9.648438 9.429688 9.390625 8.820312 C 9.140625 8.230469 8.882812 8.3125 8.695312 8.300781 C 8.515625 8.289062 8.308594 8.289062 8.101562 8.289062 C 7.894531 8.289062 7.5625 8.367188 7.277344 8.667969 C 6.992188 8.972656 6.195312 9.707031 6.195312 11.199219 C 6.195312 12.691406 7.304688 14.136719 7.457031 14.339844 C 7.613281 14.542969 9.636719 17.605469 12.746094 18.921875 C 14.710938 19.753906 15.480469 19.824219 16.460938 19.683594 C 17.058594 19.59375 18.292969 18.949219 18.550781 18.238281 C 18.804688 17.527344 18.804688 16.921875 18.726562 16.792969 C 18.65625 16.65625 18.449219 16.582031 18.140625 16.433594 Z M 18.140625 16.433594 "/>
</g>
</svg>
